<?xml version="1.0" encoding="utf-8"?>
<!-- Generator: Adobe Illustrator 23.0.1, SVG Export Plug-In . SVG Version: 6.00 Build 0)  -->
<svg version="1.1" id="Layer_1" xmlns="http://www.w3.org/2000/svg" xmlns:xlink="http://www.w3.org/1999/xlink" x="0px" y="0px"
	 viewBox="0 0 256 255" style="enable-background:new 0 0 256 255;" xml:space="preserve">
<style type="text/css">
	.st0{fill:#2CAAE1;}
</style>
<g transform="translate(128.000000, 127.000000) scale(1, -1) translate(-128.000000, -127.000000) translate(0.000000, -1.000000)">
	<path class="st0" d="M118.3,149.7h19.8l4.9,6.7v52.7h-29.6v-52.7L118.3,149.7"/>
	<path class="st0" d="M105.5,126.1l6.1,18.7l-4.9,6.7l-50.4,16.3l-9.2-28l50.4-16.3L105.5,126.1"/>
	<path class="st0" d="M124.1,106.8l-16,11.6l-8-2.6L68.9,73.2l24-17.3l31.2,42.7V106.8"/>
	<path class="st0" d="M148.3,118.4l-16-11.6l0-8.3l31.2-42.7l24,17.3l-31.2,42.7L148.3,118.4"/>
	<path class="st0" d="M144.7,144.9l6.1-18.7l8-2.6l50.4,16.3l-9.2,28l-50.4-16.3L144.7,144.9"/>
	<path class="st0" d="M128.2,254.9c-70.5,0-127.8-57-127.8-127C0.4,57.8,57.7,0.8,128.2,0.8c70.5,0,127.8,57,127.8,127.1
		C255.9,197.9,198.6,254.9,128.2,254.9L128.2,254.9L128.2,254.9z M128.2,229.2c56.3,0,101.9-45.4,101.9-101.3
		c0-56-45.6-101.4-101.9-101.4c-56.3,0-101.9,45.4-101.9,101.4C26.3,183.8,71.9,229.2,128.2,229.2L128.2,229.2z"/>
	<path class="st0" d="M205.6,99.6L167.2,112l2.5,7.8l38.3-12.4L205.6,99.6"/>
	<path class="st0" d="M156.7,160.8l-6.6,4.8l23.7,32.4l6.6-4.8L156.7,160.8"/>
	<path class="st0" d="M100.1,161.1l-23.7,32.4l6.6,4.8l23.7-32.4L100.1,161.1"/>
	<path class="st0" d="M50.6,100.1l-2.5,7.8l38.3,12.4l2.5-7.8L50.6,100.1"/>
	<path class="st0" d="M123.8,46.8h8.2v40.1h-8.2V46.8L123.8,46.8z"/>
</g>
</svg>
